#tb 0: 1/22050
#media_type 0: audio
#codec_id 0: pcm_s16le
#sample_rate 0: 22050
#channel_layout 0: 4
#channel_layout_name 0: mono
0,          0,          0,    23620,    47240, 0x9974897c
0,      23620,      23620,     1564,     3128, 0x7e4064b4
0,      25184,      25184,     1564,     3128, 0x80883301
0,      26748,      26748,     1568,     3136, 0x2ad2d341
0,      28316,      28316,     1564,     3128, 0xda8468e3
0,      29880,      29880,     1568,     3136, 0x9d6f6cdf
0,      31448,      31448,     1564,     3128, 0x1aaa64b5
0,      33012,      33012,     1564,     3128, 0x9182728b
0,      34576,      34576,     1568,     3136, 0xfa8e17b3
0,      36144,      36144,     1564,     3128, 0x0dc3c1cf
0,      37708,      37708,     1568,     3136, 0x0109639d
0,      39276,      39276,     1564,     3128, 0x6d8a12d9
0,      40840,      40840,     1564,     3128, 0x4b9a9597
0,      42404,      42404,     1568,     3136, 0x9112710e
0,      43972,      43972,     1564,     3128, 0x8cccf522
0,      45536,      45536,     1564,     3128, 0x6594bbf3
0,      47100,      47100,     1568,     3136, 0xd878a7d5
0,      48668,      48668,     1564,     3128, 0xaa6e3905
0,      50232,      50232,     1568,     3136, 0x2a062e04
0,      51800,      51800,     1564,     3128, 0x84e4006a
0,      53364,      53364,     1564,     3128, 0x85183633
0,      54928,      54928,     1568,     3136, 0xb62d4b02
0,      56496,      56496,     1564,     3128, 0xe209462a
0,      58060,      58060,     1568,     3136, 0x57c4824b
0,      59628,      59628,     1564,     3128, 0x664a9163
0,      61192,      61192,     1564,     3128, 0xb4287874
0,      62756,      62756,     1568,     3136, 0xde626885
0,      64324,      64324,     1564,     3128, 0x919763c2
0,      65888,      65888,     1564,     3128, 0xa4f664e1
0,      67452,      67452,     1568,     3136, 0xa0bab0d4
0,      69020,      69020,     1564,     3128, 0xe938939c
0,      70584,      70584,     1568,     3136, 0x3679bfc7
0,      72152,      72152,     1564,     3128, 0xc96c55c3
0,      73716,      73716,     1564,     3128, 0x119114d6
0,      75280,      75280,     1568,     3136, 0x42f3800f
0,      76848,      76848,     1564,     3128, 0x4250c4ad
0,      78412,      78412,     1568,     3136, 0x5cdd4925
0,      79980,      79980,     1564,     3128, 0xa4c12360
0,      81544,      81544,     1564,     3128, 0x849f48de
0,      83108,      83108,     1568,     3136, 0x6acd8ff9
0,      84676,      84676,     1564,     3128, 0xb2758556
0,      86240,      86240,     1564,     3128, 0x10f2fcb1
0,      87804,      87804,     1568,     3136, 0xf0f02b23
0,      89372,      89372,     1564,     3128, 0x64f759c6
0,      90936,      90936,     1568,     3136, 0x7ec075e3
0,      92504,      92504,     1564,     3128, 0xf981d51e
0,      94068,      94068,     1564,     3128, 0xc622e8b9
0,      95632,      95632,     1568,     3136, 0xf632e2f8
0,      97200,      97200,     1564,     3128, 0xda561864
0,      98764,      98764,     1568,     3136, 0x14d2e888
0,     100332,     100332,     1564,     3128, 0x015bb869
0,     101896,     101896,     1564,     3128, 0xedb1fb62
0,     103460,     103460,     1568,     3136, 0xe0560c41
0,     105028,     105028,     1564,     3128, 0x14773c9a
0,     106592,     106592,     1568,     3136, 0x850f1c82
0,     108160,     108160,     1564,     3128, 0xb0bd5347
0,     109724,     109724,     1564,     3128, 0x8f82edbf
0,     111288,     111288,     1568,     3136, 0x493abee2
0,     112856,     112856,     1564,     3128, 0xf5daff3f
0,     114420,     114420,     1564,     3128, 0x78ad2690
0,     115984,     115984,     1568,     3136, 0x490ebafc
0,     117552,     117552,     1564,     3128, 0x70333fd2
0,     119116,     119116,     1568,     3136, 0x8cb1c350
0,     120684,     120684,     1564,     3128, 0x8bd057cb
0,     122248,     122248,     1564,     3128, 0x161b3dbc
0,     123812,     123812,     1568,     3136, 0xb47fb88a
0,     125380,     125380,     1564,     3128, 0x474b381e
0,     126944,     126944,     1568,     3136, 0x07c519bb
0,     128512,     128512,     1564,     3128, 0x15b916c8
0,     130076,     130076,     1564,     3128, 0x0ed7f6fb
0,     131640,     131640,     1568,     3136, 0x54d6397b
0,     133208,     133208,     1564,     3128, 0x437242bb
0,     134772,     134772,     1564,     3128, 0x38f05c4d
0,     136336,     136336,     1568,     3136, 0x5d000e59
0,     137904,     137904,     1564,     3128, 0xdeab2d04
0,     139468,     139468,     1568,     3136, 0x77de6880
0,     141036,     141036,     1564,     3128, 0xbc87ef25
0,     142600,     142600,     1564,     3128, 0xc1638ade
0,     144164,     144164,     1568,     3136, 0xcfb64a5f
0,     145732,     145732,     1564,     3128, 0x90b1b826
0,     147296,     147296,     1568,     3136, 0x00000000
0,     148864,     148864,     1564,     3128, 0x00000000
0,     150428,     150428,     1564,     3128, 0x00000000
0,     151992,     151992,     1568,     3136, 0x00000000
0,     153560,     153560,     1564,     3128, 0x00000000
0,     155124,     155124,     1428,     2856, 0x00000000
